# xmcd
#
# Track frame offsets: 
#        200
#        25852
#        49532
#        75792
#        99155
#        119940
#        146330
#        166767
#
# Disc length: 2580 seconds
#
# Revision: 3
# Processed by: cddbd v1.5.2PL0 Copyright (c) Steve Scherf et al.
# Submitted via: ExactAudioCopy v0.99pb3
#
DISCID=540a1208
DTITLE=Lonnie Brooks - Let's Talk It Over
DYEAR=1900
DGENRE=Blues
TTITLE0=Let's Talk It Over
TTITLE1=Hard Gamblin' Woman
TTITLE2=Why Do Things Have To Change
TTITLE3=Crash Head On Into Love
TTITLE4=If You Want Me To Love You
TTITLE5=Hideaway
TTITLE6=Reconsider Baby
TTITLE7=Greasy Man
EXTD=
EXTT0=
EXTT1=
EXTT2=
EXTT3=
EXTT4=
EXTT5=
EXTT6=
EXTT7=
PLAYORDER=
